<svg xmlns="http://www.w3.org/2000/svg" xmlns:xlink="http://www.w3.org/1999/xlink" version="1.1" x="0px" y="0px" width="230" height="50" viewBox="80 20 130 60" enable-background="new 0 0 100 100" xml:space="preserve">
  <path fill="#FFFFFF" d="M33.987,26.333c-1.204-1.138-3.103-1.083-4.241,0.122L9.464,47.935c-1.091,1.156-1.092,2.963,0,4.119l20.282,21.492  c0.59,0.625,1.385,0.94,2.182,0.94c0.739,0,1.479-0.271,2.059-0.818c1.205-1.137,1.26-3.035,0.123-4.24L15.771,49.995l18.338-19.421  C35.247,29.369,35.192,27.47,33.987,26.333z M90.536,47.947L70.253,26.455c-1.135-1.204-3.035-1.261-4.24-0.123  c-1.205,1.137-1.261,3.036-0.123,4.241l18.339,19.433L65.89,69.427c-1.137,1.205-1.083,3.104,0.122,4.241  c0.58,0.547,1.32,0.818,2.059,0.818c0.797,0,1.592-0.315,2.183-0.94l20.283-21.48C91.627,50.91,91.627,49.103,90.536,47.947z   M59.216,25.994c-1.549-0.594-3.281,0.179-3.876,1.726L39.063,70.13c-0.594,1.547,0.179,3.282,1.726,3.876  c0.354,0.136,0.717,0.2,1.075,0.2c1.206,0,2.343-0.732,2.801-1.926l16.277-42.41C61.535,28.323,60.763,26.588,59.216,25.994z"/>
  <text fill="#FFFFFF" font-size="24" font-weight="600" font-family="Verdana" x="100" y="46">innovea.tech</text>
  <text fill="#FFFFFF" font-size="13" font-weight="600" font-family="Verdana" x="103" y="63">Software Development</text>
</svg>